<?xml version="1.0" encoding="utf-8"?>
<!-- Generator: Adobe Illustrator 25.0.1, SVG Export Plug-In . SVG Version: 6.00 Build 0)  -->
<svg version="1.0" id="katman_1" xmlns="http://www.w3.org/2000/svg" xmlns:xlink="http://www.w3.org/1999/xlink" x="0px" y="0px"
	 viewBox="0 0 627.9 407" style="enable-background:new 0 0 627.9 407;" xml:space="preserve">
<style type="text/css">
	.st0{fill:#FF4655;}
</style>
<g id="f000000ff">
</g>
<g id="ff4655ff">
	<path class="st0" d="M199.6,59c1.3-0.8,2.2,0.8,2.9,1.7c46.2,57.9,92.5,115.7,138.8,173.5c0.9,0.8,0.2,2.6-1.1,2.4
		c-22.1,0-44.3,0-66.4,0c-1.8,0-3.5-0.9-4.6-2.2c-23-28.7-45.9-57.4-68.9-86.1c-1-1.2-1.5-2.7-1.4-4.2c0-27.7,0-55.5,0-83.2
		C198.9,60.2,198.9,59.3,199.6,59z"/>
	<path class="st0" d="M413.5,58.8c0.9-0.4,2,0.5,1.8,1.5c0,27.7,0,55.5,0,83.2c0.1,1.6-0.3,3.2-1.3,4.4c-7,8.7-14,17.5-21,26.2
		c-1.2,1.5-3.1,2.3-5,2.3c-22,0-44,0-66,0c-1.3,0.2-2-1.6-1.1-2.4c30.5-38.2,61-76.3,91.5-114.5C412.8,59.3,413.1,59,413.5,58.8z"/>
	<path class="st0" d="M261.4,284.3c6.7-1,13.7,0.2,19.6,3.4c5.8,3.1,10.5,8.1,13.3,14c3.1,6.5,3.8,14.1,2.1,21
		c-1.7,6.8-5.7,12.9-11.2,17.1c-9.4,7.4-23.3,8.5-33.8,2.7c-6.1-3.2-11-8.6-13.7-14.8c-3.5-7.8-3.5-17.1-0.1-24.9
		C241.6,293.1,250.9,285.8,261.4,284.3 M263.1,294.8c-6.7,1-12.6,5.8-15.2,12c-2.7,6.2-2.2,13.7,1.4,19.4c3,4.8,8,8.3,13.6,9.2
		c5.7,1,11.8-0.8,16.1-4.6c4.9-4.2,7.6-10.9,7.1-17.4c-0.4-5.8-3.4-11.3-8-14.8C273.9,295.4,268.3,293.9,263.1,294.8z"/>
	<path class="st0" d="M96.4,285.7c2.6-0.7,5.3-0.1,8-0.3c0.9,0.1,2.4-0.4,2.9,0.7c0.2,1.4,0.1,2.8,0.1,4.2c0,12.2,0,24.5,0,36.7
		c10.7-13.4,21.4-26.8,32.2-40.2c0.6-0.7,1.3-1.3,2.3-1.3c3.1-0.1,6.2,0,9.2-0.1c1.2,0,2.4-0.2,3.4,0.6c-3.6,4.7-7.4,9.3-11.1,13.9
		c-11,13.8-22,27.6-33,41.3c-0.8,1-1.5,2.1-2.5,3c-1,0.8-2.3,0.5-3.5,0.6c-2.7-0.1-5.3,0.1-8-0.2V285.7z"/>
	<path class="st0" d="M170.9,287.8c1.1-1.6,3-2.5,4.9-2.5c2.4,0,4.8,0,7.1,0c0.8-0.1,1.3,0.8,1.2,1.5c0,18.8,0,37.6,0,56.4
		c0.1,0.7-0.3,1.6-1.2,1.5c-2.9,0-5.9,0-8.8,0c-1.1,0-1.9-0.7-2.5-1.5c-5.1-6.4-10.2-12.8-15.3-19.2c-5.2,6.5-10.3,12.9-15.5,19.4
		c-0.6,0.7-1.4,1.3-2.3,1.3c-3.4,0.1-6.8,0-10.1,0c-0.8-0.1-1.9,0.2-2.4-0.7C140.9,325.3,156,306.6,170.9,287.8 M162.5,315.1
		c3.5,4.4,6.9,8.7,10.5,13.1c0-8.7,0-17.4,0-26.2C169.5,306.4,166,310.7,162.5,315.1z"/>
	<path class="st0" d="M197.5,286.9c-0.1-0.7,0.3-1.5,1.1-1.5c3-0.1,5.9,0,8.9,0c0.8-0.1,1.4,0.7,1.2,1.5c0,15.7,0,31.5,0,47.2
		c8.2,0,16.5,0,24.7,0c0.7-0.2,1.1,0.7,0.6,1.2c-2.1,2.8-4.4,5.5-6.5,8.2c-0.7,0.9-1.8,1.3-2.9,1.2c-8.7,0-17.4,0-26.1,0
		c-0.8,0-1.1-0.8-1.1-1.5C197.5,324.5,197.5,305.7,197.5,286.9z"/>
	<path class="st0" d="M307.3,286.9c-0.2-0.9,0.5-1.7,1.4-1.5c15,0,30,0,45,0c0.7-0.1,1.5,0.3,1.4,1.1c0,4.1,0,8.1,0,12.2
		c0.1,1-0.4,1.8-1,2.5c-4.3,5.4-8.6,10.8-12.9,16.1c-0.2,0.4-0.9,0.9-0.4,1.3c6.6,8.3,13.2,16.5,19.7,24.7c0.5,0.4,0.5,1.3-0.3,1.3
		c-3.9,0.1-7.8,0-11.7,0c-1.5,0-2.4-1.4-3.2-2.4c-6-7.6-12.1-15.1-18.1-22.7c-0.4-0.6-1.1-1.4-0.5-2c5.7-7.2,11.5-14.4,17.2-21.6
		c-8.5,0-17,0.1-25.4-0.1c-0.2,15.9,0,31.8-0.1,47.7c0.1,0.7-0.7,1.2-1.3,1.1c-2.9,0-5.9,0-8.8,0c-0.8,0-1.1-0.9-1-1.5
		C307.3,324.5,307.3,305.7,307.3,286.9z"/>
	<path class="st0" d="M370.1,286.9c-0.1-0.8,0.4-1.6,1.2-1.5c2.8-0.1,5.6,0,8.4,0c1.1-0.1,2.1,0.4,2.7,1.3c14,17.5,28,35.1,42,52.6
		c1.2,1.6,2.7,3.1,3.7,4.8c-0.1,0.2-0.3,0.5-0.4,0.7c-3.4,0.2-6.8,0-10.2,0.1c-1.3,0-3,0.1-3.8-1.1c-5.3-6.5-10.5-13.1-15.7-19.6
		c-5.2,6.5-10.3,12.9-15.5,19.4c-0.6,0.7-1.4,1.3-2.3,1.3c-2.9,0-5.9,0-8.8,0c-0.9,0.1-1.4-0.8-1.2-1.5
		C370.1,324.5,370.1,305.7,370.1,286.9 M381.3,302c0,8.7,0,17.4,0,26.1c3.5-4.4,7-8.7,10.5-13.1C388.3,310.7,384.8,306.4,381.3,302z
		"/>
	<path class="st0" d="M419.5,286.9c-0.1-0.7,0.2-1.5,1-1.5c2.8-0.1,5.6,0,8.4,0c1.1-0.1,2.2,0.3,2.9,1.2
		c10.8,13.5,21.5,26.9,32.3,40.4c0-13.4,0-26.7,0-40.1c-0.2-0.8,0.5-1.7,1.4-1.5c3,0,5.9-0.1,8.9,0c0.8,0,1,0.9,0.9,1.5
		c0,18.8,0,37.5,0,56.3c0.1,0.6-0.2,1.5-1,1.5c-2.9,0.1-5.9,0-8.8,0c-1,0-1.9-0.4-2.5-1.2c-10.8-13.4-21.5-26.9-32.3-40.4
		c0,7.9,0,15.8,0,23.6c0.2,0.7-0.8,1.3-1.2,0.7c-3.1-3.8-6.1-7.6-9.1-11.4c-0.7-0.7-0.9-1.7-0.8-2.7
		C419.5,304.6,419.5,295.8,419.5,286.9z"/>
	<path class="st0" d="M482.9,286.5c-0.1-0.8,0.7-1.2,1.4-1.1c12.3,0,24.7,0,37,0c1.1-0.1,2.2,0.3,2.8,1.2c2.2,2.7,4.4,5.4,6.5,8.2
		c0.6,0.5,0.1,1.4-0.6,1.3c-6.5,0.1-12.9,0-19.4,0c0,15.7,0,31.5,0,47.2c0.2,0.8-0.4,1.6-1.2,1.5c-2.9,0-5.9,0-8.8,0
		c-0.6,0.1-1.2-0.5-1.1-1.1c-0.1-15.9,0-31.7-0.1-47.6c-5.1,0-10.2,0-15.3,0c-0.7,0.1-1.5-0.4-1.4-1.2
		C482.9,292.1,482.9,289.3,482.9,286.5z"/>
</g>
</svg>
